<?xml version="1.0" encoding="utf-8"?>
<!-- Generator: Adobe Illustrator 17.1.0, SVG Export Plug-In . SVG Version: 6.00 Build 0)  -->
<!DOCTYPE svg PUBLIC "-//W3C//DTD SVG 1.1//EN" "http://www.w3.org/Graphics/SVG/1.1/DTD/svg11.dtd">
<svg version="1.1" id="meter_1_" xmlns="http://www.w3.org/2000/svg" xmlns:xlink="http://www.w3.org/1999/xlink" x="0px" y="0px"
	 viewBox="0 0 245.5 245.5" enable-background="new 0 0 245.5 245.5" xml:space="preserve" fill="#FFFFFF">
<g id="meter">
	<path fill-rule="evenodd" clip-rule="evenodd" d="M77.741,65.465c-6.779,0-12.275,5.496-12.275,12.275
		c0,6.779,5.496,12.275,12.275,12.275c6.78,0,12.275-5.496,12.275-12.275C90.016,70.961,84.52,65.465,77.741,65.465z
		 M53.191,106.382c-6.78,0-12.275,5.495-12.275,12.275c0,6.779,5.496,12.275,12.275,12.275s12.275-5.496,12.275-12.275
		C65.466,111.877,59.97,106.382,53.191,106.382z M122.749,73.649c9.039,0,16.366-7.328,16.366-16.367s-7.328-16.367-16.366-16.367
		c-9.039,0-16.367,7.328-16.367,16.367S113.71,73.649,122.749,73.649z M167.758,65.465c-6.78,0-12.275,5.496-12.275,12.275
		c0,6.779,5.496,12.275,12.275,12.275c6.779,0,12.275-5.496,12.275-12.275C180.033,70.961,174.537,65.465,167.758,65.465z
		 M122.749-0.001c-67.793,0-122.75,54.956-122.75,122.75s54.957,122.75,122.75,122.75c67.793,0,122.75-54.957,122.75-122.75
		S190.542-0.001,122.749-0.001z M122.749,212.716c-49.688,0-89.968-40.28-89.968-89.968c0-49.687,40.28-89.968,89.968-89.968
		s89.968,40.28,89.968,89.968C212.717,172.436,172.437,212.716,122.749,212.716z M192.307,106.382
		c-6.78,0-12.275,5.495-12.275,12.275c0,6.779,5.495,12.275,12.275,12.275s12.275-5.496,12.275-12.275
		C204.582,111.877,199.087,106.382,192.307,106.382z M98.199,171.848c0,13.559,10.992,24.55,24.55,24.55
		c13.559,0,24.55-10.991,24.55-24.55c0-13.559-24.55-65.467-24.55-65.467S98.199,158.29,98.199,171.848z"/>
</g>
</svg>
