<?xml version="1.0" encoding="UTF-8" standalone="no"?>
<svg width="41px" height="41px" viewBox="0 0 41 41" version="1.1" xmlns="http://www.w3.org/2000/svg" xmlns:xlink="http://www.w3.org/1999/xlink" xmlns:sketch="http://www.bohemiancoding.com/sketch/ns">
    <!-- Generator: Sketch 3.0.3 (7891) - http://www.bohemiancoding.com/sketch -->
    <title>AddSubjective</title>
    <desc>Created with Sketch.</desc>
    <defs></defs>
    <g id="Page-1" stroke="none" stroke-width="1" fill="none" fill-rule="evenodd" sketch:type="MSPage">
        <g id="AddSubjective" sketch:type="MSLayerGroup">
            <circle id="Oval-7" stroke-opacity="0.503453351" stroke="#BADA83" stroke-width="5" fill="#FFFFFF" sketch:type="MSShapeGroup" cx="20.5" cy="20.5" r="17.5"></circle>
            <path d="M19,19 L19,14.4930964 C19,13.6638858 19.6715729,13 20.5,13 C21.3342028,13 22,13.668482 22,14.4930964 L22,19 L26.5069036,19 C27.3361142,19 28,19.6715729 28,20.5 C28,21.3342028 27.331518,22 26.5069036,22 L22,22 L22,26.5069036 C22,27.3361142 21.3284271,28 20.5,28 C19.6657972,28 19,27.331518 19,26.5069036 L19,22 L14.4930964,22 C13.6638858,22 13,21.3284271 13,20.5 C13,19.6657972 13.668482,19 14.4930964,19 L19,19 Z" id="Rectangle-26" fill="#BADA83" sketch:type="MSShapeGroup"></path>
        </g>
    </g>
</svg>