<?xml version="1.0" encoding="UTF-8" standalone="no"?>
<svg width="41px" height="41px" viewBox="0 0 41 41" version="1.1" xmlns="http://www.w3.org/2000/svg" xmlns:xlink="http://www.w3.org/1999/xlink" xmlns:sketch="http://www.bohemiancoding.com/sketch/ns">
    <!-- Generator: Sketch 3.0.3 (7891) - http://www.bohemiancoding.com/sketch -->
    <title>AddObjective</title>
    <desc>Created with Sketch.</desc>
    <defs>
        <path id="path-1" d="M20.5,38 C30.1649831,38 38,30.1649831 38,20.5 C38,10.8350169 30.1649831,3 20.5,3 C10.8350169,3 3,10.8350169 3,20.5 C3,30.1649831 10.8350169,38 20.5,38 Z"></path>
    </defs>
    <g id="Page-1" stroke="none" stroke-width="1" fill="none" fill-rule="evenodd" sketch:type="MSPage">
        <g id="AddObjective" sketch:type="MSLayerGroup">
            <g id="Oval-7">
                <use stroke-opacity="0.5" stroke="#5CB7BF" stroke-width="5" fill="#FFFFFF" fill-rule="evenodd" sketch:type="MSShapeGroup" xlink:href="#path-1"></use>
                <use stroke="none" fill="none" xlink:href="#path-1"></use>
            </g>
            <path d="M19,19 L19,14.4930964 C19,13.6638858 19.6715729,13 20.5,13 C21.3342028,13 22,13.668482 22,14.4930964 L22,19 L26.5069036,19 C27.3361142,19 28,19.6715729 28,20.5 C28,21.3342028 27.331518,22 26.5069036,22 L22,22 L22,26.5069036 C22,27.3361142 21.3284271,28 20.5,28 C19.6657972,28 19,27.331518 19,26.5069036 L19,22 L14.4930964,22 C13.6638858,22 13,21.3284271 13,20.5 C13,19.6657972 13.668482,19 14.4930964,19 L19,19 Z" id="Rectangle-26" fill="#5CB7BF" sketch:type="MSShapeGroup"></path>
        </g>
    </g>
</svg>