<?xml version="1.0" encoding="UTF-8" standalone="no"?>
<!-- Generator: Adobe Illustrator 17.1.0, SVG Export Plug-In . SVG Version: 6.00 Build 0)  -->

<svg
   xmlns:dc="http://purl.org/dc/elements/1.1/"
   xmlns:cc="http://creativecommons.org/ns#"
   xmlns:rdf="http://www.w3.org/1999/02/22-rdf-syntax-ns#"
   xmlns:svg="http://www.w3.org/2000/svg"
   xmlns="http://www.w3.org/2000/svg"
   xmlns:sodipodi="http://sodipodi.sourceforge.net/DTD/sodipodi-0.dtd"
   xmlns:inkscape="http://www.inkscape.org/namespaces/inkscape"
   version="1.1"
   id="Layer_1"
   x="0px"
   y="0px"
   viewBox="0 0 20.989 20.987"
   enable-background="new 0 0 35.367 42.18"
   xml:space="preserve"
   inkscape:version="0.48.5 r10040"
   width="100%"
   height="100%"
   sodipodi:docname="edit-objective-data.svg"><metadata
     id="metadata11"><rdf:RDF><cc:Work
         rdf:about=""><dc:format>image/svg+xml</dc:format><dc:type
           rdf:resource="http://purl.org/dc/dcmitype/StillImage" /></cc:Work></rdf:RDF></metadata><defs
     id="defs9" /><sodipodi:namedview
     pagecolor="#000000"
     bordercolor="#666666"
     borderopacity="1"
     objecttolerance="10"
     gridtolerance="10"
     guidetolerance="10"
     inkscape:pageopacity="0.10196078"
     inkscape:pageshadow="2"
     inkscape:window-width="1213"
     inkscape:window-height="686"
     id="namedview7"
     showgrid="false"
     fit-margin-top="0"
     fit-margin-left="0"
     fit-margin-right="0"
     fit-margin-bottom="0"
     inkscape:zoom="5.5950688"
     inkscape:cx="-20.835958"
     inkscape:cy="-0.10299985"
     inkscape:window-x="473"
     inkscape:window-y="229"
     inkscape:window-maximized="0"
     inkscape:current-layer="Layer_1" /><path
     d="m 19.674,9.181 h -1.312 c -0.046,0 -0.084,0.022 -0.13,0.026 C 18.033,7.996 17.564,6.883 16.88,5.925 16.913,5.897 16.953,5.887 16.985,5.855 l 0.927,-0.927 c 0.513,-0.513 0.513,-1.342 0,-1.855 -0.513,-0.513 -1.343,-0.513 -1.856,0 L 15.129,4 C 15.099,4.03 15.087,4.072 15.059,4.105 14.103,3.419 12.988,2.952 11.777,2.753 11.781,2.707 11.803,2.669 11.803,2.623 V 1.312 C 11.804,0.588 11.218,0 10.493,0 9.7679998,0 9.1809998,0.588 9.1809998,1.312 v 1.312 c 0,0.046 0.022,0.084 0.026,0.13 -1.211,0.199 -2.325,0.666 -3.282,1.352 -0.027,-0.034 -0.038,-0.074 -0.069,-0.106 l -0.927,-0.927 c -0.513,-0.513 -1.343,-0.513 -1.856,0 -0.512,0.513 -0.512,1.342 0,1.855 l 0.929,0.927 c 0.03,0.031 0.07,0.043 0.104,0.071 -0.687,0.957 -1.153,2.071 -1.353,3.281 -0.046,-0.004 -0.084,-0.026 -0.13,-0.026 h -1.311 C 0.58699984,9.181 -1.6197541e-7,9.769 -1.6197541e-7,10.493 c 0,0.724 0.58600000197541,1.312 1.31199996197541,1.312 h 1.311 c 0.046,0 0.084,-0.021 0.13,-0.026 0.199,1.211 0.668,2.324 1.352,3.282 -0.033,0.028 -0.073,0.038 -0.104,0.07 l -0.928,0.925 c -0.512,0.513 -0.512,1.343 0,1.855 0.513,0.513 1.343,0.513 1.856,0 l 0.927,-0.927 c 0.03,-0.03 0.042,-0.072 0.07,-0.105 0.956,0.686 2.071,1.153 3.282,1.354 -0.004,0.046 -0.026,0.084 -0.026,0.13 v 1.312 c 0,0.725 0.586,1.312 1.3120002,1.312 0.726,0 1.312,-0.586 1.312,-1.312 v -1.312 c 0,-0.046 -0.022,-0.084 -0.026,-0.13 1.211,-0.201 2.324,-0.668 3.282,-1.354 0.028,0.033 0.038,0.075 0.07,0.105 l 0.927,0.927 c 0.513,0.513 1.343,0.513 1.856,0 0.513,-0.512 0.513,-1.342 0,-1.855 l -0.927,-0.927 c -0.031,-0.03 -0.072,-0.041 -0.105,-0.07 0.685,-0.957 1.153,-2.071 1.352,-3.282 0.046,0.005 0.084,0.026 0.13,0.026 h 1.312 c 0.725,0 1.312,-0.588 1.312,-1.312 0,-0.724 -0.59,-1.31 -1.315,-1.31 z m -9.181,5.246 c -2.1730002,0 -3.9350002,-1.763 -3.9350002,-3.935 0,-2.173 1.761,-3.935 3.9350002,-3.935 2.174,0 3.935,1.761 3.935,3.935 0,2.173 -1.762,3.935 -3.935,3.935 z"
     id="path5"
     inkscape:connector-curvature="0"
     style="fill:#ffffff;stroke:#929292;stroke-width:0.40000001;stroke-miterlimit:4;stroke-dasharray:none;stroke-opacity:1" /></svg>