<?xml version="1.0" encoding="UTF-8" standalone="no"?>
<svg width="11px" height="16px" viewBox="0 0 11 16" version="1.1" xmlns="http://www.w3.org/2000/svg" xmlns:xlink="http://www.w3.org/1999/xlink" xmlns:sketch="http://www.bohemiancoding.com/sketch/ns">
    <!-- Generator: Sketch 3.2.1 (9971) - http://www.bohemiancoding.com/sketch -->
    <title>Right Chevron</title>
    <desc>Created with Sketch.</desc>
    <defs></defs>
    <g id="Page-1" stroke="none" stroke-width="1" fill="none" fill-rule="evenodd" sketch:type="MSPage">
        <path d="M1.59451081,6.93765498 L8.2103787,0.321787093 C8.59343322,-0.0612674263 9.22967322,-0.0636861158 9.62060233,0.327242991 L9.78720907,0.493849733 C10.1748496,0.88149026 10.1805809,1.51615747 9.79266497,1.90407336 L3.69526072,8.00147761 L9.79266497,14.0988818 C10.1757195,14.4819364 10.1781382,15.1181764 9.78720907,15.5091055 L9.62060233,15.6757122 C9.2329618,16.0633527 8.59829459,16.069084 8.2103787,15.6811681 L1.5944233,9.06521273 C1.51741638,9.02171812 1.44495745,8.9672209 1.37939767,8.90166113 L1.21279093,8.73505438 C1.00834969,8.53061314 0.910136414,8.2574615 0.919873001,7.98803465 C0.917167863,7.72825047 1.01425212,7.46643964 1.21279093,7.26790083 L1.37939767,7.10129409 C1.44485146,7.0358403 1.51734821,6.98127509 1.59451081,6.93765498 Z" id="Right-Chevron" fill="#5A5A5A" sketch:type="MSShapeGroup" transform="translate(5.500000, 8.000000) scale(-1, 1) translate(-5.500000, -8.000000) "></path>
    </g>
</svg>